Patient4_TMGait_0pt6_01_right_41_GRF.mot
version=1
nRows=58
nColumns=19
inDegrees=no
endheader
time	F1x	F1y	F1z	M1x	M1y	M1z	F2x	F2y	F2z	M2x	M2y	M2z	EC1x	EC1y	EC1z	EC2x	EC2y	EC2z
49.3	-5.8636	737.6756	52.4665	-266.3844	-54.3697	757.9572	7.8142	-15.0223	3.5713	-4.0346	-5.6142	-21.3942	-0.0592	0.0182	-0.0073	-0.0462	0.0165	0.9585
49.3121	-6.271	729.1869	52.5588	-263.2106	-53.7916	744.4315	5.1196	-8.9684	2.5656	-2.3021	-3.8879	-13.2246	-0.0592	0.0182	-0.0073	-0.0462	0.0165	0.9585
49.3241	-5.6218	720.5443	52.1781	-260.1078	-52.4195	730.1399	2.8283	-3.8096	1.6043	-0.78528	-2.2983	-6.2568	-0.0592	0.0182	-0.0073	-0.0462	0.0165	0.9585
49.3362	-3.933	712.7083	51.4445	-257.4369	-50.4063	716.2574	1.0509	0.18067	0.799	0.41794	-0.99237	-0.85788	-0.0592	0.0182	-0.0073	-0.0462	0.0165	0.9585
49.3483	-1.4122	706.4584	50.4944	-255.4671	-47.9624	703.7241	-0.18123	2.9878	0.18755	1.2895	-0.018991	2.9306	-0.0592	0.0182	-0.0073	-0.0462	0.0165	0.9585
49.3604	1.6735	702.3069	49.5206	-254.3561	-45.3522	693.1738	-0.98228	4.7805	-0.23768	1.8636	0.65675	5.3533	-0.0592	0.0182	-0.0073	-0.0462	0.0165	0.9585
49.3724	5.0652	700.4947	48.6268	-254.1596	-42.7482	684.9204	-1.4369	5.7453	-0.50303	2.1851	1.0804	6.6657	-0.0592	0.0182	-0.0073	-0.0462	0.0165	0.9585
49.3845	8.5656	700.9786	47.9278	-254.827	-40.309	678.9844	-1.6894	6.0776	-0.65818	2.2976	1.3316	7.1575	-0.0592	0.0182	-0.0073	-0.0462	0.0165	0.9585
49.3966	12.0634	703.485	47.4396	-256.2252	-38.0705	675.1483	-1.8081	5.8774	-0.72894	2.2175	1.4572	6.9685	-0.0592	0.0182	-0.0073	-0.0462	0.0165	0.9585
49.4086	15.492	707.5899	47.1933	-258.1651	-36.0697	673.0444	-1.869	5.1882	-0.75365	1.942	1.5163	6.185	-0.0592	0.0182	-0.0073	-0.0462	0.0165	0.9585
49.4207	18.8421	712.7956	47.144	-260.4355	-34.2602	672.2176	-1.8854	3.9703	-0.74308	1.4459	1.5245	4.7756	-0.0592	0.0182	-0.0073	-0.0462	0.0165	0.9585
49.4328	22.1303	718.5844	47.2791	-262.8144	-32.6226	672.196	-1.8618	2.159	-0.71691	0.69523	1.4961	2.687	-0.0592	0.0182	-0.0073	-0.0462	0.0165	0.9585
49.4449	25.4002	724.3989	47.5632	-265.0668	-31.1123	672.4711	-1.7522	-0.31429	-0.67206	-0.33882	1.4059	-0.15347	-0.0592	0.0182	-0.0073	-0.0462	0.0165	0.9585
49.4569	28.6823	729.6889	48.0193	-266.955	-29.7441	672.5722	-1.4895	-3.4382	-0.60293	-1.6487	1.2143	-3.7362	-0.0592	0.0182	-0.0073	-0.0462	0.0165	0.9585
49.469	32.0143	733.9297	48.663	-268.2514	-28.5304	672.0595	-0.98317	-7.0285	-0.48456	-3.1514	0.85411	-7.8656	-0.0592	0.0182	-0.0073	-0.0462	0.0165	0.9585
49.4811	35.3905	736.6283	49.5133	-268.748	-27.5025	670.5327	-0.12124	-10.6229	-0.28387	-4.6451	0.24305	-12.0216	-0.0592	0.0182	-0.0073	-0.0462	0.0165	0.9585
49.4931	38.8021	737.3759	50.5463	-268.2829	-26.6584	667.6619	1.1917	-13.3416	0.039073	-5.752	-0.70481	-15.1995	-0.0592	0.0182	-0.0073	-0.0462	0.0165	0.9585
49.5052	42.2374	735.9376	51.7041	-266.7747	-25.9659	663.2679	3.0296	-13.7698	0.53477	-5.8673	-2.0701	-15.7914	-0.0592	0.0182	-0.0073	-0.0462	0.0165	0.9585
49.5173	45.6769	732.2514	52.9406	-264.221	-25.4082	657.3093	5.3643	-9.8493	1.231	-4.1168	-3.8645	-11.4398	-0.0592	0.0182	-0.0073	-0.0462	0.0165	0.9585
49.5294	49.098	726.3531	54.1922	-260.6709	-24.9515	649.8203	8.046	1.0911	2.1348	0.63459	-6.0116	0.91358	-0.0592	0.0182	-0.0073	-0.0462	0.0165	0.9585
49.5414	52.4931	718.2131	55.3623	-256.1689	-24.5294	640.7527	10.6512	22.2194	3.1857	9.7216	-8.2438	24.9275	-0.0592	0.0182	-0.0073	-0.0462	0.0165	0.9585
49.5535	55.7952	707.5267	56.2615	-250.686	-24.0112	629.7964	12.4463	56.7297	4.2386	24.4842	-10.0587	64.2895	-0.0592	0.0182	-0.0073	-0.0462	0.0165	0.9585
49.5656	58.905	693.5386	56.6438	-244.0558	-23.2259	616.2271	12.2454	107.092	5.0107	45.9357	-10.616	121.8929	-0.0592	0.0182	-0.0073	-0.0462	0.0165	0.9585
49.5776	61.6346	674.9793	56.1866	-235.9441	-21.9592	598.8766	8.5192	173.8531	5.0971	74.2583	-8.8007	198.4312	-0.0592	0.0182	-0.0073	-0.0462	0.0165	0.9585
49.5897	63.6858	650.1415	54.6021	-225.8633	-20.064	576.1886	-0.11527	254.3198	4.0524	108.2394	-3.5228	290.8986	-0.0592	0.0182	-0.0073	-0.0462	0.0165	0.9585
49.6018	64.653	617.1529	51.6826	-213.2527	-17.4901	546.4767	-13.3511	341.5867	1.1816	144.8612	5.8501	391.3873	-0.0592	0.0182	-0.0073	-0.0462	0.0165	0.9585
49.6139	64.064	574.4474	47.4344	-197.622	-14.3978	508.3487	-28.5625	425.2571	-4.3462	179.6651	19.0253	487.8102	-0.0592	0.0182	-0.0073	-0.0462	0.0165	0.9585
49.6259	61.4749	521.4069	42.0949	-178.7618	-11.1346	461.262	-42.8035	496.4695	-12.4314	208.8959	34.5003	569.6616	-0.0592	0.0182	-0.0073	-0.0462	0.0165	0.9585
49.638	56.6262	458.98	36.1199	-156.9505	-8.1654	406.0655	-54.1358	551.8619	-21.9246	231.1733	50.1253	632.7745	-0.0592	0.0182	-0.0073	-0.0462	0.0165	0.9585
49.6501	49.6096	389.6794	30.062	-132.9789	-5.9103	344.9458	-61.6053	592.4987	-31.4827	247.0442	63.9717	678.2485	-0.0592	0.0182	-0.0073	-0.0462	0.0165	0.9585
49.6621	40.7864	317.2868	24.3205	-108.0722	-4.5599	281.1974	-65.1787	621.3892	-39.8308	257.8981	74.6301	709.5437	-0.0592	0.0182	-0.0073	-0.0462	0.0165	0.9585
49.6742	30.8496	246.2477	19.1431	-83.7025	-4.069	218.6641	-65.3905	641.9406	-46.4065	265.2696	81.7097	730.6337	-0.0592	0.0182	-0.0073	-0.0462	0.0165	0.9585
49.6863	20.7748	180.9238	14.64	-61.3329	-4.172	161.1397	-62.9243	657.4664	-51.0449	270.6098	85.3828	745.3474	-0.0592	0.0182	-0.0073	-0.0462	0.0165	0.9585
49.6984	11.6836	124.6126	10.8637	-42.0853	-4.4996	111.4715	-58.5779	670.5474	-54.2218	275.0122	86.5403	756.7345	-0.0592	0.0182	-0.0073	-0.0462	0.0165	0.9585
49.7104	4.4552	79.0576	7.7512	-26.5555	-4.6706	71.1899	-53.1216	682.6113	-56.4151	279.0822	86.0934	766.5493	-0.0592	0.0182	-0.0073	-0.0462	0.0165	0.9585
49.7225	-0.45618	44.4949	5.1952	-14.8216	-4.4297	40.511	-47.3797	694.2704	-58.1646	283.0715	85.0007	775.6842	-0.0592	0.0182	-0.0073	-0.0462	0.0165	0.9585
49.7346	-3.1235	20.1477	3.11	-6.6025	-3.7336	18.7966	-42.0191	705.7612	-59.6009	287.0939	83.7399	784.535	-0.0592	0.0182	-0.0073	-0.0462	0.0165	0.9585
49.7466	-4.076	4.5832	1.5232	-1.3869	-2.8036	4.8129	-37.6128	717.1684	-60.8003	291.1963	82.6513	793.3237	-0.0592	0.0182	-0.0073	-0.0462	0.0165	0.9585
49.7587	-3.988	-4.0622	0.46072	1.4793	-1.9069	-3.0212	-34.4467	728.3805	-61.6697	295.3574	81.7788	801.9701	-0.0592	0.0182	-0.0073	-0.0462	0.0165	0.9585
49.7708	-3.3396	-7.7793	-0.17453	2.6782	-1.1446	-6.4628	-32.6683	739.1262	-62.1877	299.4791	81.1524	810.2056	-0.0592	0.0182	-0.0073	-0.0462	0.0165	0.9585
49.7829	-2.4881	-8.3286	-0.48116	2.8136	-0.57245	-7.0453	-32.1962	748.9819	-62.2994	303.3996	80.6808	817.5276	-0.0592	0.0182	-0.0073	-0.0462	0.0165	0.9585
49.7949	-1.6403	-7.1058	-0.57219	2.3601	-0.17483	-6.0189	-32.828	757.4488	-62.0721	306.9081	80.3398	823.3523	-0.0592	0.0182	-0.0073	-0.0462	0.0165	0.9585
49.807	-0.92241	-5.1071	-0.53713	1.6578	0.076128	-4.2743	-34.2446	764.0321	-61.5302	309.7967	80.0197	827.059	-0.0592	0.0182	-0.0073	-0.0462	0.0165	0.9585
49.8191	-0.37232	-2.9701	-0.446	0.92305	0.22155	-2.3786	-36.1215	768.5195	-60.7105	311.9602	79.6187	828.3356	-0.0592	0.0182	-0.0073	-0.0462	0.0165	0.9585
49.8311	0.019962	-1.059	-0.34731	0.27663	0.30145	-0.66633	-38.1563	771.0823	-59.5756	313.453	78.975	827.2896	-0.0592	0.0182	-0.0073	-0.0462	0.0165	0.9585
49.8432	0.25742	0.47574	-0.26098	-0.23324	0.33351	0.73013	-40.11	772.2941	-58.1059	314.4925	77.9688	824.4674	-0.0592	0.0182	-0.0073	-0.0462	0.0165	0.9585
49.8553	0.39433	1.5997	-0.20133	-0.59913	0.34604	1.7582	-41.7774	773.0503	-56.3161	315.4221	76.5315	820.7611	-0.0592	0.0182	-0.0073	-0.0462	0.0165	0.9585
49.8674	0.44033	2.364	-0.16437	-0.83892	0.34084	2.4825	-42.9904	774.3661	-54.2782	316.6298	74.6669	817.206	-0.0592	0.0182	-0.0073	-0.0462	0.0165	0.9585
49.8794	0.45018	2.8211	-0.14768	-0.97623	0.33438	2.9277	-43.6016	777.0935	-52.1376	318.4272	72.4586	814.7105	-0.0592	0.0182	-0.0073	-0.0462	0.0165	0.9585
49.8915	0.42259	3.0679	-0.14084	-1.0449	0.31888	3.1931	-43.4739	781.633	-50.0499	320.9368	70.0062	813.7351	-0.0592	0.0182	-0.0073	-0.0462	0.0165	0.9585
49.9036	0.40355	3.1676	-0.14076	-1.0701	0.3055	3.3018	-42.5407	787.7961	-48.1934	324.0382	67.4564	814.174	-0.0592	0.0182	-0.0073	-0.0462	0.0165	0.9585
49.9156	0.368	3.2024	-0.14109	-1.0789	0.28341	3.3408	-40.7579	794.8012	-46.678	327.3761	64.9032	815.32	-0.0592	0.0182	-0.0073	-0.0462	0.0165	0.9585
49.9277	0.35037	3.1983	-0.13392	-1.0827	0.25585	3.3199	-38.1928	801.4432	-45.5868	330.434	62.444	816.0548	-0.0592	0.0182	-0.0073	-0.0462	0.0165	0.9585
49.9398	0.31879	3.191	-0.11594	-1.0914	0.21429	3.3012	-34.9468	806.3463	-44.8857	332.6421	60.0821	815.0859	-0.0592	0.0182	-0.0073	-0.0462	0.0165	0.9585
49.9519	0.28533	3.1599	-0.077426	-1.1008	0.15381	3.2484	-31.1872	808.2334	-44.5105	333.4826	57.816	811.2363	-0.0592	0.0182	-0.0073	-0.0462	0.0165	0.9585
49.9639	0.21967	3.082	-0.019667	-1.1017	0.067332	3.1594	-27.0851	806.1382	-44.3212	332.5776	55.5817	803.6239	-0.0592	0.0182	-0.0073	-0.0462	0.0165	0.9585
49.976	0.13335	2.8991	0.058544	-1.0707	-0.046069	2.9554	-22.8178	799.6168	-44.2033	329.7667	53.3402	791.8791	-0.0592	0.0182	-0.0073	-0.0462	0.0165	0.9585
49.9881	0.0001076	2.5624	0.14594	-0.98133	-0.18341	2.5813	-18.5271	788.8193	-44.0491	325.131	51.0448	776.2048	-0.0592	0.0182	-0.0073	-0.0462	0.0165	0.9585
